<?xml version="1.0" encoding="UTF-8" standalone="no"?>
<!-- Created with Inkscape (http://www.inkscape.org/) -->

<svg
   width="48"
   height="48"
   viewBox="0 0 12.7 12.7"
   version="1.1"
   id="svg2634"
   inkscape:version="1.1 (c4e8f9ed74, 2021-05-24)"
   sodipodi:docname="application-pdf.svg"
   xmlns:inkscape="http://www.inkscape.org/namespaces/inkscape"
   xmlns:sodipodi="http://sodipodi.sourceforge.net/DTD/sodipodi-0.dtd"
   xmlns="http://www.w3.org/2000/svg"
   xmlns:svg="http://www.w3.org/2000/svg"
   xmlns:rdf="http://www.w3.org/1999/02/22-rdf-syntax-ns#"
   xmlns:cc="http://creativecommons.org/ns#"
   xmlns:dc="http://purl.org/dc/elements/1.1/">
  <title
     id="title3250">Boston Icons</title>
  <defs
     id="defs2628" />
  <sodipodi:namedview
     id="base"
     pagecolor="#ffffff"
     bordercolor="#00ffed"
     borderopacity="1"
     inkscape:pageopacity="1"
     inkscape:pageshadow="2"
     inkscape:zoom="15.839192"
     inkscape:cx="25.159112"
     inkscape:cy="23.012538"
     inkscape:document-units="px"
     inkscape:current-layer="layer1"
     showgrid="false"
     showguides="false"
     inkscape:guide-bbox="true"
     fit-margin-top="0"
     fit-margin-left="0"
     fit-margin-right="0"
     fit-margin-bottom="0"
     inkscape:window-width="1920"
     inkscape:window-height="1011"
     inkscape:window-x="0"
     inkscape:window-y="32"
     inkscape:window-maximized="1"
     units="px"
     inkscape:pagecheckerboard="0">
    <inkscape:grid
       type="xygrid"
       id="grid3182"
       spacingx="0.26458333"
       spacingy="0.26458333"
       empspacing="4"
       originx="-82.550004"
       originy="-127.00001"
       dotted="false" />
    <sodipodi:guide
       position="-4.268358e-06,27.516666"
       orientation="1,0"
       id="guide3216"
       inkscape:locked="false" />
    <sodipodi:guide
       position="32.279157,-4.1479283e-06"
       orientation="0,1"
       id="guide3222"
       inkscape:locked="false" />
    <sodipodi:guide
       position="13.229163,0.52915746"
       orientation="0,1"
       id="guide3226"
       inkscape:locked="false" />
    <sodipodi:guide
       position="0.52916318,6.8791574"
       orientation="1,0"
       id="guide3228"
       inkscape:locked="false" />
    <sodipodi:guide
       position="1.0583298,6.8791574"
       orientation="1,0"
       id="guide3234"
       inkscape:locked="false" />
    <sodipodi:guide
       position="1.5874965,6.8791574"
       orientation="1,0"
       id="guide3236"
       inkscape:locked="false" />
    <sodipodi:guide
       position="6.3499965,7.9374908"
       orientation="1,0"
       id="guide3238"
       inkscape:locked="false" />
    <sodipodi:guide
       position="13.75833,1.0583241"
       orientation="0,1"
       id="guide3246"
       inkscape:locked="false" />
    <sodipodi:guide
       position="5.8208298,12.170824"
       orientation="0,1"
       id="guide864"
       inkscape:locked="false" />
    <sodipodi:guide
       position="12.17083,8.4666574"
       orientation="1,0"
       id="guide868"
       inkscape:locked="false" />
    <sodipodi:guide
       position="11.641663,8.4666574"
       orientation="1,0"
       id="guide870"
       inkscape:locked="false" />
    <sodipodi:guide
       position="11.112496,8.4666574"
       orientation="1,0"
       id="guide872"
       inkscape:locked="false" />
    <sodipodi:guide
       position="2.1166616,12.170822"
       orientation="1,0"
       id="guide1119"
       inkscape:locked="false" />
    <sodipodi:guide
       position="10.583328,11.112488"
       orientation="1,0"
       id="guide1121"
       inkscape:locked="false" />
    <sodipodi:guide
       position="13.493745,6.879155"
       orientation="0.70710678,0.70710678"
       id="guide1123"
       inkscape:locked="false" />
    <sodipodi:guide
       position="7.9374949,9.7895716"
       orientation="1,0"
       id="guide1129"
       inkscape:locked="false" />
    <sodipodi:guide
       position="8.4666615,9.5249883"
       orientation="0,1"
       id="guide1131"
       inkscape:locked="false" />
    <sodipodi:guide
       position="3.4395782,8.2020716"
       orientation="1,0"
       id="guide1138"
       inkscape:locked="false" />
    <sodipodi:guide
       position="9.2604115,7.1437383"
       orientation="1,0"
       id="guide1140"
       inkscape:locked="false" />
    <sodipodi:guide
       position="4.2333282,10.318738"
       orientation="0,1"
       id="guide1142"
       inkscape:locked="false" />
    <sodipodi:guide
       position="4.7624949,8.466655"
       orientation="0,1"
       id="guide1152"
       inkscape:locked="false" />
    <sodipodi:guide
       position="5.2916616,3.704155"
       orientation="0,1"
       id="guide849"
       inkscape:locked="false" />
  </sodipodi:namedview>
  <metadata
     id="metadata2631">
    <rdf:RDF>
      <cc:Work
         rdf:about="">
        <dc:format>image/svg+xml</dc:format>
        <dc:type
           rdf:resource="http://purl.org/dc/dcmitype/StillImage" />
        <dc:title>Boston Icons</dc:title>
        <cc:license
           rdf:resource="dribbble.com/chrisdiaz" />
        <dc:creator>
          <cc:Agent>
            <dc:title>Christian Díaz</dc:title>
          </cc:Agent>
        </dc:creator>
        <dc:date>2021</dc:date>
        <dc:publisher>
          <cc:Agent>
            <dc:title>Christian Díaz</dc:title>
          </cc:Agent>
        </dc:publisher>
        <dc:identifier>christiandiaz.design [at] gmail [dot] com</dc:identifier>
        <dc:subject>
          <rdf:Bag>
            <rdf:li>GNOME icon Theme</rdf:li>
          </rdf:Bag>
        </dc:subject>
        <dc:description>dribbble.com/chrisdiaz | diazchris.deviantart.com</dc:description>
      </cc:Work>
    </rdf:RDF>
  </metadata>
  <g
     inkscape:label="Capa 1"
     inkscape:groupmode="layer"
     id="layer1"
     transform="translate(-82.550003,-157.3)">
    <g
       id="g1193">
      <path
         inkscape:connector-curvature="0"
         id="path1125"
         d="m 84.666665,157.82918 h 6.085416 l 2.38125,2.38125 v 9.26041 h -8.466666 z"
         style="fill:#af282e;fill-opacity:1;stroke:none;stroke-width:0.264583px;stroke-linecap:butt;stroke-linejoin:miter;stroke-opacity:1" />
      <path
         sodipodi:nodetypes="cccccc"
         inkscape:connector-curvature="0"
         id="path1127"
         d="m 84.931248,158.09376 h 5.688547 l 2.248958,2.24895 -5e-6,8.86355 h -7.9375 z"
         style="fill:#d43838;stroke:none;stroke-width:0.264583px;stroke-linecap:butt;stroke-linejoin:miter;stroke-opacity:1" />
      <path
         id="rect1133"
         d="m 90.487503,157.82917 v 2.38125 0.26458 h 0.264583 2.38125 v -0.26458 l -2.381255,-2.38124 5e-6,-1e-5 z"
         style="fill:#af282e;fill-opacity:1;fill-rule:nonzero;stroke:none;stroke-width:0.529167;stroke-linecap:square;stroke-linejoin:bevel;stroke-miterlimit:4;stroke-dasharray:none;stroke-dashoffset:35;stroke-opacity:1"
         inkscape:connector-curvature="0"
         sodipodi:nodetypes="ccccccccc" />
      <path
         id="rect985"
         style="fill:#ffffff;stroke-width:0.999999;stroke-linejoin:round"
         d="M 13 18 L 13 19 L 14 19 L 14 18 L 13 18 z M 14 19 L 14 20 L 15 20 L 15 19 L 14 19 z M 15 19 L 16 19 L 16 18 L 15 18 L 15 19 z M 16 19 L 16 20 L 17 20 L 17 19 L 16 19 z M 17 19 L 18 19 L 18 18 L 17 18 L 17 19 z M 18 19 L 18 20 L 19 20 L 19 19 L 18 19 z M 19 19 L 20 19 L 20 18 L 19 18 L 19 19 z M 20 19 L 20 20 L 21 20 L 21 19 L 20 19 z M 21 19 L 22 19 L 22 18 L 21 18 L 21 19 z M 22 19 L 22 20 L 23 20 L 23 19 L 22 19 z M 23 19 L 24 19 L 24 18 L 23 18 L 23 19 z M 24 19 L 24 20 L 25 20 L 25 19 L 24 19 z M 25 19 L 26 19 L 26 18 L 25 18 L 25 19 z M 26 19 L 26 20 L 27 20 L 27 19 L 26 19 z M 27 19 L 28 19 L 28 18 L 27 18 L 27 19 z M 28 19 L 28 20 L 29 20 L 29 19 L 28 19 z M 29 19 L 30 19 L 30 18 L 29 18 L 29 19 z M 30 19 L 30 20 L 31 20 L 31 19 L 30 19 z M 31 19 L 32 19 L 32 18 L 31 18 L 31 19 z M 32 19 L 32 20 L 33 20 L 33 19 L 32 19 z M 33 19 L 34 19 L 34 18 L 33 18 L 33 19 z M 34 19 L 34 20 L 35 20 L 35 19 L 34 19 z M 13 22 L 13 23 L 14 23 L 14 22 L 13 22 z M 14 23 L 14 24 L 15 24 L 15 23 L 14 23 z M 15 23 L 16 23 L 16 22 L 15 22 L 15 23 z M 16 23 L 16 24 L 17 24 L 17 23 L 16 23 z M 17 23 L 18 23 L 18 22 L 17 22 L 17 23 z M 18 23 L 18 24 L 19 24 L 19 23 L 18 23 z M 19 23 L 20 23 L 20 22 L 19 22 L 19 23 z M 20 23 L 20 24 L 21 24 L 21 23 L 20 23 z M 21 23 L 22 23 L 22 22 L 21 22 L 21 23 z M 22 23 L 22 24 L 23 24 L 23 23 L 22 23 z M 23 23 L 24 23 L 24 22 L 23 22 L 23 23 z M 24 23 L 24 24 L 25 24 L 25 23 L 24 23 z M 25 23 L 26 23 L 26 22 L 25 22 L 25 23 z M 26 23 L 26 24 L 27 24 L 27 23 L 26 23 z M 27 23 L 28 23 L 28 22 L 27 22 L 27 23 z M 28 23 L 28 24 L 29 24 L 29 23 L 28 23 z M 29 23 L 30 23 L 30 22 L 29 22 L 29 23 z M 30 23 L 30 24 L 31 24 L 31 23 L 30 23 z M 31 23 L 32 23 L 32 22 L 31 22 L 31 23 z M 32 23 L 32 24 L 33 24 L 33 23 L 32 23 z M 33 23 L 34 23 L 34 22 L 33 22 L 33 23 z M 34 23 L 34 24 L 35 24 L 35 23 L 34 23 z M 13 26 L 13 27 L 14 27 L 14 26 L 13 26 z M 14 27 L 14 28 L 15 28 L 15 27 L 14 27 z M 15 27 L 16 27 L 16 26 L 15 26 L 15 27 z M 16 27 L 16 28 L 17 28 L 17 27 L 16 27 z M 17 27 L 18 27 L 18 26 L 17 26 L 17 27 z M 18 27 L 18 28 L 19 28 L 19 27 L 18 27 z M 19 27 L 20 27 L 20 26 L 19 26 L 19 27 z M 20 27 L 20 28 L 21 28 L 21 27 L 20 27 z M 21 27 L 22 27 L 22 26 L 21 26 L 21 27 z M 22 27 L 22 28 L 23 28 L 23 27 L 22 27 z M 23 27 L 24 27 L 24 26 L 23 26 L 23 27 z M 24 27 L 24 28 L 25 28 L 25 27 L 24 27 z M 25 27 L 26 27 L 26 26 L 25 26 L 25 27 z M 26 27 L 26 28 L 27 28 L 27 27 L 26 27 z M 27 27 L 28 27 L 28 26 L 27 26 L 27 27 z M 28 27 L 28 28 L 29 28 L 29 27 L 28 27 z M 29 27 L 30 27 L 30 26 L 29 26 L 29 27 z M 30 27 L 30 28 L 31 28 L 31 27 L 30 27 z M 31 27 L 32 27 L 32 26 L 31 26 L 31 27 z M 32 27 L 32 28 L 33 28 L 33 27 L 32 27 z M 33 27 L 34 27 L 34 26 L 33 26 L 33 27 z M 34 27 L 34 28 L 35 28 L 35 27 L 34 27 z M 13 30 L 13 31 L 14 31 L 14 30 L 13 30 z M 14 31 L 14 32 L 15 32 L 15 31 L 14 31 z M 15 31 L 16 31 L 16 30 L 15 30 L 15 31 z M 16 31 L 16 32 L 17 32 L 17 31 L 16 31 z M 17 31 L 18 31 L 18 30 L 17 30 L 17 31 z M 18 31 L 18 32 L 19 32 L 19 31 L 18 31 z M 19 31 L 20 31 L 20 30 L 19 30 L 19 31 z M 20 31 L 20 32 L 21 32 L 21 31 L 20 31 z M 21 31 L 22 31 L 22 30 L 21 30 L 21 31 z M 22 31 L 22 32 L 23 32 L 23 31 L 22 31 z M 23 31 L 24 31 L 24 30 L 23 30 L 23 31 z M 24 31 L 24 32 L 25 32 L 25 31 L 24 31 z M 25 31 L 26 31 L 26 30 L 25 30 L 25 31 z M 26 31 L 26 32 L 27 32 L 27 31 L 26 31 z M 27 31 L 28 31 L 28 30 L 27 30 L 27 31 z M 28 31 L 28 32 L 29 32 L 29 31 L 28 31 z M 29 31 L 30 31 L 30 30 L 29 30 L 29 31 z M 30 31 L 30 32 L 31 32 L 31 31 L 30 31 z M 31 31 L 32 31 L 32 30 L 31 30 L 31 31 z M 32 31 L 32 32 L 33 32 L 33 31 L 32 31 z M 33 31 L 34 31 L 34 30 L 33 30 L 33 31 z M 34 31 L 34 32 L 35 32 L 35 31 L 34 31 z "
         transform="matrix(0.26458333,0,0,0.26458333,82.550003,157.3)" />
    </g>
  </g>
</svg>
