<?xml version="1.0" encoding="UTF-8" standalone="no"?>
<svg
   width="16"
   height="16"
   id="svg4159"
   version="1.1"
   inkscape:version="1.1.2 (0a00cf5339, 2022-02-04, custom)"
   viewBox="0 0 16 16"
   sodipodi:docname="text-x-changelog.svg"
   xmlns:inkscape="http://www.inkscape.org/namespaces/inkscape"
   xmlns:sodipodi="http://sodipodi.sourceforge.net/DTD/sodipodi-0.dtd"
   xmlns="http://www.w3.org/2000/svg"
   xmlns:svg="http://www.w3.org/2000/svg"
   xmlns:rdf="http://www.w3.org/1999/02/22-rdf-syntax-ns#"
   xmlns:cc="http://creativecommons.org/ns#"
   xmlns:dc="http://purl.org/dc/elements/1.1/">
  <title
     id="title815">Boston Icons</title>
  <defs
     id="defs4161">
    <inkscape:perspective
       sodipodi:type="inkscape:persp3d"
       inkscape:vp_x="0 : 8 : 1"
       inkscape:vp_y="0 : 1000 : 0"
       inkscape:vp_z="16 : 8 : 1"
       inkscape:persp3d-origin="8 : 5.3333333 : 1"
       id="perspective4709" />
    <clipPath
       clipPathUnits="userSpaceOnUse"
       id="clipPath5603">
      <path
         style="fill:#00ffff;fill-opacity:1;stroke:none;stroke-width:0.26458335px;stroke-linecap:butt;stroke-linejoin:miter;stroke-opacity:1"
         d="m 61.912499,165.76667 -6.879168,6.87917 6.879168,6.87916 6.879167,-6.87916 z"
         id="path5605"
         inkscape:connector-curvature="0" />
    </clipPath>
  </defs>
  <sodipodi:namedview
     id="base"
     pagecolor="#ffffff"
     bordercolor="#00fff6"
     borderopacity="1"
     inkscape:pageopacity="0"
     inkscape:pageshadow="2"
     inkscape:zoom="31.392433"
     inkscape:cx="5.8612851"
     inkscape:cy="6.9284213"
     inkscape:current-layer="g904"
     showgrid="false"
     inkscape:grid-bbox="true"
     inkscape:document-units="px"
     inkscape:window-width="1920"
     inkscape:window-height="1011"
     inkscape:window-x="0"
     inkscape:window-y="0"
     inkscape:window-maximized="1"
     showguides="false"
     inkscape:guide-bbox="true"
     inkscape:document-rotation="0"
     inkscape:pagecheckerboard="0">
    <inkscape:grid
       type="xygrid"
       id="grid4707" />
    <sodipodi:guide
       position="8,9"
       orientation="1,0"
       id="guide3096"
       inkscape:locked="false" />
    <sodipodi:guide
       position="12,8"
       orientation="0,1"
       id="guide3098"
       inkscape:locked="false" />
  </sodipodi:namedview>
  <metadata
     id="metadata4164">
    <rdf:RDF>
      <cc:Work
         rdf:about="">
        <dc:format>image/svg+xml</dc:format>
        <dc:type
           rdf:resource="http://purl.org/dc/dcmitype/StillImage" />
        <dc:title>Boston Icons</dc:title>
        <cc:license
           rdf:resource="dribbble.com/chrisdiaz" />
        <dc:creator>
          <cc:Agent>
            <dc:title>Christian Díaz</dc:title>
          </cc:Agent>
        </dc:creator>
        <dc:description>dribbble.com/chrisdiaz | diazchris.deviantart.com</dc:description>
        <dc:date>2021</dc:date>
        <dc:publisher>
          <cc:Agent>
            <dc:title>Christian Díaz</dc:title>
          </cc:Agent>
        </dc:publisher>
        <dc:identifier>christiandiaz.design [at] gmail [dot] com</dc:identifier>
        <dc:subject>
          <rdf:Bag>
            <rdf:li>GNOME icon Theme</rdf:li>
          </rdf:Bag>
        </dc:subject>
      </cc:Work>
    </rdf:RDF>
  </metadata>
  <g
     id="layer1"
     inkscape:label="Layer 1"
     inkscape:groupmode="layer">
    <g
       id="g884">
      <g
         id="g904">
        <g
           id="g857">
          <path
             id="path839"
             style="fill:#556e81;fill-opacity:1;stroke:none;stroke-width:1px;stroke-linecap:butt;stroke-linejoin:miter;stroke-opacity:1"
             d="m 2,0 v 16 h 2 l 2,-2 2,2 2,-2 2,2 h 2 V 0 Z" />
          <path
             id="path841"
             style="fill:#ffffff;stroke:none;stroke-width:1px;stroke-linecap:butt;stroke-linejoin:miter;stroke-opacity:1"
             d="m 3,1 v 13.5 h 1 l 2,-2 2,2 2,-2 2,2 h 1 V 1 Z" />
          <path
             id="path848"
             style="fill:#556e81;stroke-width:0.5;stroke-linejoin:round"
             d="M 4.4882812,3 A 0.5,0.5 0 0 0 4,3.5 0.5,0.5 0 0 0 4.5,4 0.5,0.5 0 0 0 5,3.5 0.5,0.5 0 0 0 4.5,3 0.5,0.5 0 0 0 4.4882812,3 Z M 6,3 v 1 h 4 V 3 Z m 5.488281,0 A 0.5,0.5 0 0 0 11,3.5 0.5,0.5 0 0 0 11.5,4 0.5,0.5 0 0 0 12,3.5 0.5,0.5 0 0 0 11.5,3 0.5,0.5 0 0 0 11.488281,3 Z M 4.4882812,6 A 0.5,0.5 0 0 0 4,6.5 0.5,0.5 0 0 0 4.5,7 0.5,0.5 0 0 0 5,6.5 0.5,0.5 0 0 0 4.5,6 0.5,0.5 0 0 0 4.4882812,6 Z M 11.488281,6 A 0.5,0.5 0 0 0 11,6.5 0.5,0.5 0 0 0 11.5,7 0.5,0.5 0 0 0 12,6.5 0.5,0.5 0 0 0 11.5,6 0.5,0.5 0 0 0 11.488281,6 Z M 4.4882812,9 A 0.5,0.5 0 0 0 4,9.5 0.5,0.5 0 0 0 4.5,10 0.5,0.5 0 0 0 5,9.5 0.5,0.5 0 0 0 4.5,9 0.5,0.5 0 0 0 4.4882812,9 Z M 11.488281,9 A 0.5,0.5 0 0 0 11,9.5 0.5,0.5 0 0 0 11.5,10 0.5,0.5 0 0 0 12,9.5 0.5,0.5 0 0 0 11.5,9 0.5,0.5 0 0 0 11.488281,9 Z" />
          <path
             id="rect864"
             style="fill:#f866a7;stroke-width:0.5;stroke-linejoin:round"
             d="M 6,6 V 7 H 8 V 6 Z m 0,3 v 1 H 8 V 9 Z" />
        </g>
      </g>
    </g>
  </g>
</svg>
